<svg width="168" height="52" viewBox="0 0 168 52" fill="none" xmlns="http://www.w3.org/2000/svg">
<path d="M66.586 27.312C66.586 28.2307 66.3693 29.0973 65.936 29.912C65.5027 30.7267 64.8093 31.394 63.856 31.914C62.9027 32.4167 61.6807 32.668 60.19 32.668H56.914V40H53.95V21.93H60.19C61.5767 21.93 62.7467 22.1727 63.7 22.658C64.6707 23.126 65.39 23.7673 65.858 24.582C66.3433 25.3967 66.586 26.3067 66.586 27.312ZM60.19 30.25C61.3167 30.25 62.1573 29.9987 62.712 29.496C63.2667 28.976 63.544 28.248 63.544 27.312C63.544 25.336 62.426 24.348 60.19 24.348H56.914V30.25H60.19ZM72.3769 27.754C72.8102 27.026 73.3822 26.4627 74.0929 26.064C74.8209 25.648 75.6789 25.44 76.6669 25.44V28.508H75.9129C74.7516 28.508 73.8676 28.8027 73.2609 29.392C72.6716 29.9813 72.3769 31.004 72.3769 32.46V40H69.4129V25.674H72.3769V27.754ZM85.6054 40.234C84.2534 40.234 83.0314 39.9307 81.9394 39.324C80.8474 38.7 79.9894 37.8333 79.3654 36.724C78.7414 35.5973 78.4294 34.2973 78.4294 32.824C78.4294 31.368 78.7501 30.0767 79.3914 28.95C80.0327 27.8233 80.9081 26.9567 82.0174 26.35C83.1267 25.7433 84.3661 25.44 85.7354 25.44C87.1047 25.44 88.3441 25.7433 89.4534 26.35C90.5627 26.9567 91.4381 27.8233 92.0794 28.95C92.7207 30.0767 93.0414 31.368 93.0414 32.824C93.0414 34.28 92.7121 35.5713 92.0534 36.698C91.3947 37.8247 90.4934 38.7 89.3494 39.324C88.2227 39.9307 86.9747 40.234 85.6054 40.234ZM85.6054 37.66C86.3681 37.66 87.0787 37.478 87.7374 37.114C88.4134 36.75 88.9594 36.204 89.3754 35.476C89.7914 34.748 89.9994 33.864 89.9994 32.824C89.9994 31.784 89.8001 30.9087 89.4014 30.198C89.0027 29.47 88.4741 28.924 87.8154 28.56C87.1567 28.196 86.4461 28.014 85.6834 28.014C84.9207 28.014 84.2101 28.196 83.5514 28.56C82.9101 28.924 82.3987 29.47 82.0174 30.198C81.6361 30.9087 81.4454 31.784 81.4454 32.824C81.4454 34.3667 81.8354 35.5627 82.6154 36.412C83.4127 37.244 84.4094 37.66 85.6054 37.66ZM94.9835 32.772C94.9835 31.3333 95.2782 30.0593 95.8675 28.95C96.4742 27.8407 97.2888 26.9827 98.3115 26.376C99.3515 25.752 100.504 25.44 101.769 25.44C102.705 25.44 103.624 25.648 104.525 26.064C105.444 26.4627 106.172 27 106.709 27.676V20.76H109.699V40H106.709V37.842C106.224 38.5353 105.548 39.1073 104.681 39.558C103.832 40.0087 102.853 40.234 101.743 40.234C100.495 40.234 99.3515 39.922 98.3115 39.298C97.2888 38.6567 96.4742 37.7727 95.8675 36.646C95.2782 35.502 94.9835 34.2107 94.9835 32.772ZM106.709 32.824C106.709 31.836 106.501 30.978 106.085 30.25C105.687 29.522 105.158 28.9673 104.499 28.586C103.841 28.2047 103.13 28.014 102.367 28.014C101.605 28.014 100.894 28.2047 100.235 28.586C99.5768 28.95 99.0395 29.496 98.6235 30.224C98.2248 30.9347 98.0255 31.784 98.0255 32.772C98.0255 33.76 98.2248 34.6267 98.6235 35.372C99.0395 36.1173 99.5768 36.6893 100.235 37.088C100.911 37.4693 101.622 37.66 102.367 37.66C103.13 37.66 103.841 37.4693 104.499 37.088C105.158 36.7067 105.687 36.152 106.085 35.424C106.501 34.6787 106.709 33.812 106.709 32.824ZM126.567 25.674V40H123.603V38.31C123.135 38.8993 122.519 39.3673 121.757 39.714C121.011 40.0433 120.214 40.208 119.365 40.208C118.238 40.208 117.224 39.974 116.323 39.506C115.439 39.038 114.737 38.3447 114.217 37.426C113.714 36.5073 113.463 35.398 113.463 34.098V25.674H116.401V33.656C116.401 34.9387 116.721 35.9267 117.363 36.62C118.004 37.296 118.879 37.634 119.989 37.634C121.098 37.634 121.973 37.296 122.615 36.62C123.273 35.9267 123.603 34.9387 123.603 33.656V25.674H126.567ZM129.489 32.824C129.489 31.3507 129.784 30.0593 130.373 28.95C130.98 27.8233 131.812 26.9567 132.869 26.35C133.927 25.7433 135.14 25.44 136.509 25.44C138.243 25.44 139.673 25.856 140.799 26.688C141.943 27.5027 142.715 28.6727 143.113 30.198H139.915C139.655 29.4873 139.239 28.9327 138.667 28.534C138.095 28.1353 137.376 27.936 136.509 27.936C135.296 27.936 134.325 28.3693 133.597 29.236C132.887 30.0853 132.531 31.2813 132.531 32.824C132.531 34.3667 132.887 35.5713 133.597 36.438C134.325 37.3047 135.296 37.738 136.509 37.738C138.225 37.738 139.361 36.984 139.915 35.476H143.113C142.697 36.932 141.917 38.0933 140.773 38.96C139.629 39.8093 138.208 40.234 136.509 40.234C135.14 40.234 133.927 39.9307 132.869 39.324C131.812 38.7 130.98 37.8333 130.373 36.724C129.784 35.5973 129.489 34.2973 129.489 32.824ZM149.525 28.092V36.022C149.525 36.5593 149.647 36.9493 149.889 37.192C150.149 37.4173 150.583 37.53 151.189 37.53H153.009V40H150.669C149.335 40 148.312 39.688 147.601 39.064C146.891 38.44 146.535 37.426 146.535 36.022V28.092H144.845V25.674H146.535V22.112H149.525V25.674H153.009V28.092H149.525ZM160.941 40.234C159.814 40.234 158.8 40.0347 157.899 39.636C157.015 39.22 156.313 38.6653 155.793 37.972C155.273 37.2613 154.996 36.4727 154.961 35.606H158.029C158.081 36.2127 158.367 36.724 158.887 37.14C159.424 37.5387 160.092 37.738 160.889 37.738C161.721 37.738 162.362 37.582 162.813 37.27C163.281 36.9407 163.515 36.5247 163.515 36.022C163.515 35.4847 163.255 35.086 162.735 34.826C162.232 34.566 161.426 34.28 160.317 33.968C159.242 33.6733 158.367 33.3873 157.691 33.11C157.015 32.8327 156.426 32.408 155.923 31.836C155.438 31.264 155.195 30.51 155.195 29.574C155.195 28.8113 155.42 28.118 155.871 27.494C156.322 26.8527 156.963 26.35 157.795 25.986C158.644 25.622 159.615 25.44 160.707 25.44C162.336 25.44 163.645 25.856 164.633 26.688C165.638 27.5027 166.176 28.6207 166.245 30.042H163.281C163.229 29.4007 162.969 28.8893 162.501 28.508C162.033 28.1267 161.4 27.936 160.603 27.936C159.823 27.936 159.225 28.0833 158.809 28.378C158.393 28.6727 158.185 29.0627 158.185 29.548C158.185 29.9293 158.324 30.25 158.601 30.51C158.878 30.77 159.216 30.978 159.615 31.134C160.014 31.2727 160.603 31.4547 161.383 31.68C162.423 31.9573 163.272 32.2433 163.931 32.538C164.607 32.8153 165.188 33.2313 165.673 33.786C166.158 34.3407 166.41 35.0773 166.427 35.996C166.427 36.8107 166.202 37.5387 165.751 38.18C165.3 38.8213 164.659 39.324 163.827 39.688C163.012 40.052 162.05 40.234 160.941 40.234Z" fill="#1B1919"/>
<rect x="1" y="16" width="10" height="35" rx="5" stroke="#E02C6D" stroke-width="2"/>
<rect x="0.5" y="0.5" width="11" height="11" rx="5.5" fill="#E02C6D" stroke="#E02C6D"/>
<path d="M23 16H28V46C28 48.7614 25.7614 51 23 51C20.2386 51 18 48.7614 18 46V21C18 18.2386 20.2386 16 23 16Z" stroke="#E02C6D" stroke-width="2"/>
<path d="M32.5 30.5L32.5 15.5L34 15.5C38.1421 15.5 41.5 18.8579 41.5 23C41.5 27.1421 38.1421 30.5 34 30.5L32.5 30.5Z" fill="#E02C6D" stroke="#E02C6D"/>
</svg>
